<svg width="30" height="30" viewBox="0 0 30 30" fill="none" xmlns="http://www.w3.org/2000/svg">
<path fill-rule="evenodd" clip-rule="evenodd" d="M15.0001 2.1875C15.9841 2.1875 16.8517 2.52503 17.765 3.07503C18.6566 3.61253 19.6753 4.40622 20.9474 5.39497L23.4474 7.34001C25.0335 8.57376 26.0842 9.36246 26.6469 10.5125C27.2094 11.6625 27.1876 12.9775 27.1876 14.9862V18.125C27.1876 20.1612 27.1896 21.7825 27.0191 23.05C26.845 24.3463 26.4751 25.4125 25.6312 26.2562C24.7872 27.1 23.7209 27.47 22.4256 27.6437C21.1572 27.815 19.536 27.8125 17.5001 27.8125H12.5001C10.4643 27.8125 8.84291 27.815 7.57457 27.6437C6.27931 27.47 5.2129 27.1 4.36901 26.2562C3.52514 25.4125 3.15522 24.3463 2.98107 23.05C2.85317 22.0988 2.82249 20.95 2.81505 19.575L2.81261 18.125V14.9862C2.81261 12.9775 2.79087 11.6625 3.35339 10.5125C3.91601 9.36246 4.9668 8.57376 6.55285 7.34001L9.05285 5.39497C10.325 4.40622 11.3436 3.61253 12.2352 3.07503C13.1485 2.52503 14.0161 2.1875 15.0001 2.1875ZM15.0001 4.0625C14.4833 4.0625 13.9551 4.22752 13.2032 4.68003C12.4294 5.14628 11.5122 5.85872 10.204 6.87622L7.70397 8.82004C5.97274 10.1663 5.36391 10.6675 5.03674 11.3362C4.7096 12.005 4.68761 12.7938 4.68761 14.9862V18.125C4.68761 20.2138 4.68921 21.6863 4.83897 22.8C4.98517 23.8875 5.25724 24.4925 5.69469 24.93C6.13216 25.3675 6.73747 25.64 7.82482 25.7862C8.93914 25.9362 10.4115 25.9375 12.5001 25.9375H17.5001C19.5888 25.9375 21.0611 25.9362 22.1754 25.7862C23.2627 25.64 23.868 25.3675 24.3055 24.93C24.743 24.4925 25.015 23.8875 25.1612 22.8C25.311 21.6863 25.3126 20.2138 25.3126 18.125V14.9862C25.3126 12.7938 25.2906 12.005 24.9635 11.3362C24.6363 10.6675 24.0275 10.1663 22.2962 8.82004L19.7962 6.87622C18.488 5.85872 17.5708 5.14628 16.797 4.68003C16.045 4.22752 15.517 4.0625 15.0001 4.0625ZM21.3783 18.1313C22.0085 18.195 22.5001 18.7275 22.5001 19.375V21.875L22.494 22.0037C22.4299 22.6338 21.8972 23.125 21.2501 23.125H18.7501C18.4186 23.125 18.1007 22.9938 17.8664 22.7588C17.6319 22.5238 17.5001 22.2062 17.5001 21.875V19.375C17.5001 18.685 18.0598 18.125 18.7501 18.125H21.2501L21.3783 18.1313Z" fill="black"/>
</svg>
